<svg preserveAspectRatio="none" width="100%" height="100%" overflow="visible" style="display: block;" viewBox="0 0 19.9999 20.0003" fill="none" xmlns="http://www.w3.org/2000/svg">
<path id="icon" d="M5.84033 2.44154C5.65238 3.16369 5.49698 4.05805 5.31591 5.09096L4.44873 10.0382C4.26768 11.071 4.10949 11.964 4.04052 12.7072C3.96948 13.4734 3.97298 14.2544 4.21435 15.049C4.57372 16.2311 5.29688 17.2712 6.28173 18.0177C6.94484 18.5202 7.67694 18.7919 8.41943 18.9874C8.85557 19.1023 9.35499 19.2024 9.90869 19.3058C9.52208 19.3797 9.08757 19.4589 8.59619 19.546L8.40673 19.5792C6.28803 19.955 5.22817 20.1434 4.34619 19.8722C3.57041 19.6336 2.88909 19.1538 2.40087 18.5021C1.84612 17.7612 1.65913 16.6951 1.28564 14.5646L0.418452 9.61732C0.0449082 7.48647 -0.142176 6.41945 0.127436 5.53236C0.364732 4.75241 0.842117 4.06721 1.48974 3.57631C2.22631 3.01836 3.28652 2.82993 5.40478 2.45424L5.59423 2.42103C5.68378 2.40515 5.77208 2.39033 5.85791 2.37514C5.85208 2.39696 5.84602 2.41969 5.84033 2.44154ZM10.3462 0.128065C11.2281 -0.143 12.2882 0.0452983 14.4067 0.421034L14.5952 0.454237C16.7136 0.829953 17.7737 1.0183 18.5102 1.57631C19.1581 2.06735 19.6353 2.75309 19.8726 3.53334C20.142 4.42038 19.9551 5.48665 19.5815 7.61732L18.7144 12.5646C18.3408 14.6953 18.154 15.7612 17.5991 16.5021C17.1109 17.1537 16.4296 17.6336 15.6538 17.8722C14.7718 18.1433 13.7119 17.955 11.5933 17.5792L11.4048 17.546C10.3458 17.3582 9.55095 17.2176 8.92919 17.0538C8.54052 16.9515 8.21902 16.8404 7.94287 16.7033C7.88748 16.6757 7.83368 16.6471 7.78173 16.6173C7.73008 16.5877 7.67995 16.5566 7.63134 16.5245L7.48974 16.424C7.32801 16.3014 7.17595 16.1668 7.03662 16.0216C6.85247 15.8295 6.69095 15.6172 6.55029 15.3917C6.37133 15.1051 6.22703 14.7955 6.12744 14.4679C5.85793 13.5808 6.04488 12.5139 6.41845 10.3829L7.28564 5.43568C7.37496 4.92618 7.45322 4.47707 7.5288 4.07924C7.53682 4.03706 7.54624 3.99529 7.55419 3.95424C7.62786 3.57409 7.69844 3.24127 7.7749 2.9474C7.78552 2.90659 7.79825 2.86664 7.80908 2.82728C7.83384 2.73731 7.85807 2.65034 7.88427 2.56752C7.94434 2.37768 8.00894 2.20553 8.08056 2.04799C8.08291 2.04275 8.08501 2.03657 8.0874 2.03139L8.08837 2.03041C8.17932 1.83324 8.2813 1.6578 8.40087 1.49818C8.8891 0.846607 9.57047 0.366636 10.3462 0.128065Z" fill="var(--fill-0, white)"/>
</svg>
