<svg preserveAspectRatio="none" width="100%" height="100%" overflow="visible" style="display: block;" viewBox="0 0 19 16" fill="none" xmlns="http://www.w3.org/2000/svg">
<path id="icon" d="M3.5 9C4.43051 9 4.89591 8.99976 5.27246 9.12207C6.03356 9.36937 6.63063 9.96644 6.87793 10.7275C7.00024 11.1041 7 11.5695 7 12.5C7 13.4305 7.00024 13.8959 6.87793 14.2725C6.63063 15.0336 6.03356 15.6306 5.27246 15.8779C4.89591 16.0002 4.43051 16 3.5 16C2.56949 16 2.10409 16.0002 1.72754 15.8779C0.966444 15.6306 0.369365 15.0336 0.12207 14.2725C-0.000236903 13.8959 3.52801e-09 13.4305 3.52801e-09 12.5C3.52801e-09 11.5695 -0.000236903 11.1041 0.12207 10.7275C0.369365 9.96644 0.966444 9.36937 1.72754 9.12207C2.10409 8.99976 2.56949 9 3.5 9ZM19 13.5H9V11.5H19V13.5ZM3.5 3.52801e-09C4.43051 3.52801e-09 4.89591 -0.000236903 5.27246 0.12207C6.03356 0.369365 6.63063 0.966444 6.87793 1.72754C7.00024 2.10409 7 2.56949 7 3.5C7 4.43051 7.00024 4.89591 6.87793 5.27246C6.63063 6.03356 6.03356 6.63063 5.27246 6.87793C4.89591 7.00024 4.43051 7 3.5 7C2.56949 7 2.10409 7.00024 1.72754 6.87793C0.966444 6.63063 0.369365 6.03356 0.12207 5.27246C-0.000236903 4.89591 3.52801e-09 4.43051 3.52801e-09 3.5C3.52801e-09 2.56949 -0.000236903 2.10409 0.12207 1.72754C0.369365 0.966444 0.966444 0.369365 1.72754 0.12207C2.10409 -0.000236903 2.56949 3.52801e-09 3.5 3.52801e-09ZM19 4.5H9V2.5H19V4.5Z" fill="var(--fill-0, white)"/>
</svg>
