<svg preserveAspectRatio="none" width="100%" height="100%" overflow="visible" style="display: block;" viewBox="0 0 19.9998 19.4956" fill="none" xmlns="http://www.w3.org/2000/svg">
<path id="icon" d="M2.57037 2.60885C4.57361 0.67992 7.00067 0.158114 9.35162 0.527795C10.4596 0.702123 11.5504 1.0737 12.584 1.58346L11.0801 3.09518C10.4051 2.81343 9.71902 2.61018 9.0401 2.50338C7.21919 2.21718 5.449 2.61386 3.95807 4.04928C1.75268 6.17339 1.41179 9.53049 2.92096 12.4448C4.16371 14.844 6.6765 16.9276 10.418 17.5571L9.89459 19.4956C5.67052 18.728 2.67247 16.3145 1.14459 13.3647C-0.696338 9.80976 -0.383365 5.45359 2.57037 2.60885ZM17.3428 5.30709C18.3699 6.50322 19.1733 7.82231 19.6172 9.13424C20.2781 11.0878 20.1829 13.2225 18.5323 14.7251C16.0228 17.0087 12.7542 16.6184 10.1563 15.226C9.3821 14.811 8.63973 14.2913 7.95807 13.7006L10.5069 13.1128C10.7016 13.236 10.8987 13.3551 11.1006 13.4633C13.2975 14.6409 15.5502 14.7337 17.1856 13.2456C18.033 12.4741 18.2374 11.2977 17.7227 9.77584C17.3868 8.78311 16.7618 7.72697 15.9268 6.72994L17.3428 5.30709ZM14.7774 5.64303L8.98346 11.4653L6.50006 11.9995L6.98346 9.45651L12.7774 3.63326L14.7774 5.64303ZM15.9786 0.417443C16.5327 -0.139164 17.4342 -0.139132 17.9883 0.417443C18.5386 0.970425 18.5385 1.8644 17.9883 2.41744L16.1885 4.22506L14.1885 2.21529L15.9786 0.417443Z" fill="var(--fill-0, white)"/>
</svg>
