<svg preserveAspectRatio="none" width="100%" height="100%" overflow="visible" style="display: block;" viewBox="0 0 20 16" fill="none" xmlns="http://www.w3.org/2000/svg">
<path id="icon" d="M13.5996 1.63272e-09C15.8398 1.63272e-09 16.9608 -0.000427061 17.8164 0.435547C18.5689 0.819016 19.181 1.43109 19.5645 2.18359C20.0004 3.03924 20 4.16018 20 6.40039V9.59961C20 11.8398 20.0004 12.9608 19.5645 13.8164C19.181 14.5689 18.5689 15.181 17.8164 15.5645C16.9608 16.0004 15.8398 16 13.5996 16H6.40039C4.16018 16 3.03924 16.0004 2.18359 15.5645C1.43109 15.181 0.819016 14.5689 0.435547 13.8164C-0.000427061 12.9608 1.63272e-09 11.8398 1.63272e-09 9.59961V6.40039C1.63272e-09 4.16018 -0.000427061 3.03924 0.435547 2.18359C0.819016 1.43109 1.43109 0.819016 2.18359 0.435547C3.03924 -0.000427061 4.16018 1.63272e-09 6.40039 1.63272e-09H13.5996ZM4 12H7V10H4V12ZM9 12H16V10H9V12ZM4 8.5H11V6.5H4V8.5ZM13 8.5H16V6.5H13V8.5Z" fill="var(--fill-0, white)"/>
</svg>
