<svg preserveAspectRatio="none" width="100%" height="100%" overflow="visible" style="display: block;" viewBox="0 0 80 26" fill="none" xmlns="http://www.w3.org/2000/svg">
<g id="Union">
<path fill-rule="evenodd" clip-rule="evenodd" d="M6.7617 5.85873C7.89305 5.85873 8.91032 6.11407 9.81186 6.62282C10.7307 7.11329 11.4557 7.69407 11.9859 8.36613L12.6225 6.13154H15.4062V26H11.8262V18.3691C11.2607 19.0048 10.545 19.5496 9.67915 20.0038C8.81296 20.458 7.84002 20.6858 6.7617 20.6858C5.45372 20.6857 4.28683 20.3679 3.26163 19.7321C2.23645 19.0962 1.43246 18.2146 0.849124 17.0882C0.28345 15.9617 0 14.6895 0 13.2723C1.28951e-05 11.8551 0.283463 10.5827 0.849124 9.45626C1.43238 8.33012 2.23668 7.44939 3.26163 6.81356C4.28683 6.17768 5.45372 5.85879 6.7617 5.85873ZM7.74354 9.13022C6.55929 9.13022 5.59548 9.52019 4.85306 10.3013C4.11063 11.0826 3.73962 12.0731 3.7396 13.2723C3.7396 14.4714 4.11061 15.4619 4.85306 16.2432C5.59549 17.0244 6.55924 17.4154 7.74354 17.4154C8.94541 17.4153 9.92684 17.0244 10.6869 16.2432C11.4469 15.4619 11.8262 14.4714 11.8262 13.2723C11.8262 12.0731 11.4469 11.0826 10.6869 10.3013C9.92684 9.5201 8.94541 9.13031 7.74354 9.13022Z" fill="var(--fill-0, #262626)"/>
<path d="M21.6057 14.1994C21.6058 15.144 21.8624 15.9165 22.375 16.516C22.9053 17.1154 23.5775 17.4154 24.3905 17.4154C25.2211 17.4153 25.8923 17.1239 26.4048 16.5426C26.9174 15.9431 27.1741 15.1622 27.1741 14.1994V6.13154H30.754V20.413H27.9693L27.3597 18.2871C26.9178 19.0138 26.3251 19.5954 25.5827 20.0315C24.858 20.4674 24.0889 20.6858 23.2759 20.6858C22.3038 20.6857 21.411 20.4315 20.598 19.9228C19.8025 19.3959 19.1749 18.6776 18.7153 17.7692C18.2557 16.8426 18.0258 15.8159 18.0258 14.6895V6.13154H21.6057V14.1994Z" fill="var(--fill-0, #262626)"/>
<path d="M46.5885 5.85873C48.1618 5.85873 49.5501 6.26764 50.7522 7.08526C51.9718 7.90288 52.8201 9.0661 53.2974 10.5741L49.93 11.1463C49.6648 10.5468 49.2494 10.0743 48.6838 9.72907C48.1182 9.38385 47.4812 9.21117 46.7741 9.21117C45.6785 9.21125 44.7772 9.59294 44.0703 10.3556C43.3809 11.1187 43.0356 12.0913 43.0356 13.2723C43.0356 14.4533 43.3809 15.4257 44.0703 16.1889C44.7773 16.9516 45.6785 17.3333 46.7741 17.3333C47.4988 17.3333 48.1441 17.1605 48.7097 16.8154C49.2753 16.4703 49.7176 16.0071 50.0357 15.4259L53.4031 15.9981C52.9081 17.506 52.033 18.6683 50.778 19.4859C49.5406 20.2853 48.1441 20.6858 46.5885 20.6858C45.1921 20.6857 43.9366 20.3679 42.823 19.7321C41.7095 19.0962 40.8436 18.2146 40.225 17.0882C39.6063 15.9617 39.2971 14.6895 39.2971 13.2723C39.2971 11.8551 39.6063 10.5827 40.225 9.45626C40.8435 8.33012 41.7098 7.4494 42.823 6.81356C43.9366 6.17768 45.1921 5.85878 46.5885 5.85873Z" fill="var(--fill-0, #262626)"/>
<path d="M74.1921 5.85873C75.6239 5.85873 76.8535 6.24119 77.8788 7.00431C78.9215 7.76739 79.6288 8.81214 80 10.1383L76.6855 10.7105C76.4734 10.1473 76.1456 9.7108 75.7037 9.40192C75.2795 9.09321 74.7753 8.93948 74.1921 8.93948C73.6798 8.93955 73.2382 9.05722 72.8671 9.29324C72.4961 9.51118 72.3106 9.80173 72.3104 10.1649C72.3104 10.6009 72.5662 10.9463 73.0786 11.2007C73.5913 11.4551 74.3344 11.7008 75.3066 11.937C76.6676 12.2641 77.7809 12.7366 78.647 13.3543C79.5308 13.972 79.973 14.9256 79.973 16.2155C79.973 17.0149 79.7607 17.7607 79.3365 18.4512C78.9299 19.1231 78.2761 19.668 77.3749 20.0858C76.4734 20.4855 75.3417 20.6858 73.9806 20.6858C72.3543 20.6858 71.0021 20.2853 69.9238 19.4859C68.8633 18.6865 68.1912 17.5878 67.9083 16.1889L71.2228 15.6166C71.435 16.216 71.7886 16.6972 72.2834 17.0605C72.796 17.4238 73.4322 17.6061 74.1921 17.6061C74.7931 17.6061 75.3064 17.5055 75.7306 17.3056C76.1724 17.0876 76.3931 16.7697 76.3931 16.3519C76.393 15.9159 76.1549 15.5704 75.6778 15.3161C75.2006 15.0618 74.5376 14.8435 73.6893 14.6618C72.2044 14.3348 71.0016 13.8538 70.0824 13.2179C69.1809 12.582 68.7305 11.5735 68.7305 10.1926C68.7305 8.75723 69.252 7.67564 70.2949 6.94886C71.3554 6.22233 72.6545 5.85881 74.1921 5.85873Z" fill="var(--fill-0, #262626)"/>
<path d="M37.2136 20.413H33.6348V6.13154H37.2136V20.413Z" fill="var(--fill-0, #262626)"/>
<path d="M58.5777 11.5556H59.2143L63.6692 6.13154H67.8317L62.0778 12.9728L68.3097 20.413H63.7749L59.2412 14.8803H58.5777V20.413H54.9989V1.19881H58.5777V11.5556Z" fill="var(--fill-0, #262626)"/>
<path d="M35.4377 0C36.0563 6.77595e-05 36.5687 0.208742 36.9752 0.626573C37.3817 1.04441 37.5847 1.57106 37.5848 2.20687C37.5848 2.8428 37.3818 3.37037 36.9752 3.78827C36.5687 4.18776 36.0561 4.38705 35.4377 4.38712C34.8015 4.38712 34.2798 4.18778 33.8732 3.78827C33.4667 3.37037 33.2626 2.8428 33.2626 2.20687C33.2626 1.57105 33.4667 1.04442 33.8732 0.626573C34.2798 0.208706 34.8014 0 35.4377 0Z" fill="var(--fill-0, #262626)"/>
</g>
</svg>
